<?xml version="1.0" encoding="utf-8"?>
<svg version="1.1" id="svg2" x="0px" y="0px" width="367.35px" height="367.35px" viewBox="0 0 367.35 367.35" enable-background="new 0 0 367.35 367.35" xmlns="http://www.w3.org/2000/svg">
  <ellipse fill="#F8F8F8" cx="184.077" cy="183.007" rx="177.771" ry="177.167"/>
  <g id="g12" transform="matrix(1.25,0,0,-1.25,0,367.35)">
    <g id="g14" transform="scale(0.12,0.12)">
      <path id="path20" d="M1226.968,32.997C568.615,32.997,32,569.605,32,1227.968 c0,658.366,536.615,1195,1194.967,1195c658.366,0,1195-536.637,1195-1195S1885.334,32.997,1226.968,32.997z M1226.968,304.658 c511.556,0,923.346,411.758,923.346,923.311c0,511.556-411.79,923.343-923.346,923.343 c-511.543,0-923.314-411.787-923.314-923.343C303.654,716.415,715.425,304.658,1226.968,304.658z" style="fill: #12100E;"/>
      <path id="path22" d="M1594.839,412.418L2032.3,1623.079l-35.41,20.83c-106.25,95.83-152.09,156.25-264.59,200 c-173.047,67.301-316.66-64.58-464.577-104.17c-227.285-60.82-436.491-44.919-628.158,82.161 c-20.599,13.659-27.669,27.07-43.75,45.84c-135.423-150.01-240.033-343.102-260.228-566.331c-0.586-6.52,1.022-10.199,2.083-16.66 c45.84-37.5,375.918-347.331,836.328-182.747c186.211,66.563,310.423-8.333,470.84-108.333 c26.1-16.276,24.499-16.016,39.583-27.083l-197.923-600l52.09,14.583L1594.839,412.418" style="fill: #12100E;"/>
      <path id="path24" d="M1451.089,1054.091l-261.042-721.055c-12.884-0.527-20.215-0.618-33.06,0.56 c-22.897,2.096-35.918,4.948-57.637,12.5l132.988,393.405l-20.84,14.583c-77.077,29.167-111.888,53.997-214.577,35.417 c-218.75-39.583-504.766,62.643-611.745,286.315c-22.91,47.923-35.651,69.935-43.34,118.555c-3.164,20.019-4.18,31.54-4.167,51.81 c210.378-174.167,423.112-262.331,713.418-212.93c136.413,23.21,223.372,94.544,352.083,43.75 C1422.443,1069.391,1433.127,1064.41,1451.089,1054.091" style="fill: #12100E;"/>
      <path id="path32_2_" fill="#FFFFFF" d="M1262.951,2303.951"/>
    </g>
  </g>
  <g>
    <path fill="none" d="M357.753,183.43c0-96.197-77.482-174.181-173.063-174.181c-95.578,0-173.061,77.984-173.061,174.181 c0,96.201,77.483,174.181,173.061,174.181C280.271,357.61,357.753,279.631,357.753,183.43z"/>
    <path fill="#F8F8F8" d="M 221.137 341.173 L 242.259 334.665 L 221.137 341.173 Z"/>
  </g>
  <g>
    <ellipse fill="none" cx="184.286" cy="183.242" rx="142.89" ry="143.813"/>
  </g>
</svg>