<?xml version="1.0" encoding="utf-8"?>
<svg version="1.1" id="svg2" x="0px" y="0px" width="437.426px" height="378.701px" viewBox="0 0 437.426 378.701" enable-background="new 0 0 437.426 378.701" xmlns="http://www.w3.org/2000/svg">
  <path id="path16" fill="#12100E" d="M 245.603 9.83 C 335.406 10.424 419.499 81.784 430.614 171.67 C 439.931 219.577 423.784 267.089 399.305 307.675 C 410.326 319.026 409.016 318.926 420.267 330.066 C 404.742 345.7 398.537 354.095 382.903 369.62 C 371.767 358.271 367.779 355.831 356.376 344.769 C 310.832 373.445 254.516 386.394 201.512 374.01 C 162.182 366.96 128.901 343.081 98.619 318.334 C 76.662 337.377 78.816 334.634 56.874 353.694 C 46.023 340.802 35.054 328.027 24.28 315.084 C 55.722 286.742 62.788 279.704 96.502 254.06 C 132.921 289.899 181.425 313.517 232.961 314.862 C 259.589 318.392 285.212 307.99 309.07 297.592 C 266.96 254.91 223.342 213.726 181.771 170.498 C 169.101 182.769 156.529 195.139 143.89 207.442 C 126.497 189.376 108.608 171.805 91.165 153.793 C 124.242 125.79 181.994 72.39 181.994 72.39 L 271.638 87.869 C 271.638 87.869 239.784 117.533 224.517 133.046 C 266.665 175.805 308.987 218.402 351.949 260.35 C 386.481 195.143 365.826 112.191 316.561 60.354 C 297.282 37.959 270.884 24.158 245.603 9.83 Z"/>
</svg>